<?xml version="1.0" encoding="UTF-8" standalone="no"?>
<!DOCTYPE svg PUBLIC "-//W3C//DTD SVG 1.1//EN"
 "http://www.w3.org/Graphics/SVG/1.1/DTD/svg11.dtd">
<!-- Generated by graphviz version 15.0.0 (20260523.1842)
 -->
<!-- Title: current_command_retry_ack_flow Pages: 1 -->
<svg width="2159pt" height="591pt"
 viewBox="0.00 0.00 2159.00 591.00" xmlns="http://www.w3.org/2000/svg" xmlns:xlink="http://www.w3.org/1999/xlink">
<g id="graph0" class="graph" transform="scale(1 1) rotate(0) translate(4 587.12)">
<title>current_command_retry_ack_flow</title>
<polygon fill="white" stroke="none" points="-4,4 -4,-587.12 2154.83,-587.12 2154.83,4 -4,4"/>
<g id="clust1" class="cluster">
<title>cluster_station</title>
<polygon fill="#e3f2fd" stroke="#1565c0" points="8,-199 8,-499 1130.58,-499 1130.58,-199 8,-199"/>
<text xml:space="preserve" text-anchor="middle" x="569.29" y="-484.55" font-family="Times New Roman,serif" font-size="11.00" fill="#0d47a1">STATION (Core 0)</text>
</g>
<g id="clust2" class="cluster">
<title>cluster_link</title>
<polygon fill="#fff3e0" stroke="#e65100" points="359.08,-116 359.08,-191 1141.08,-191 1141.08,-116 359.08,-116"/>
<text xml:space="preserve" text-anchor="middle" x="750.08" y="-177.5" font-family="Times New Roman,serif" font-size="10.00" fill="#bf360c">Half&#45;Duplex LoRa Link (RFM95W / SX1276)</text>
</g>
<g id="clust3" class="cluster">
<title>cluster_vehicle</title>
<polygon fill="#ffebee" stroke="#c62828" points="1216.08,-8 1216.08,-235 2142.83,-235 2142.83,-8 1216.08,-8"/>
<text xml:space="preserve" text-anchor="middle" x="1679.46" y="-220.55" font-family="Times New Roman,serif" font-size="11.00" fill="#b71c1c">VEHICLE (Core 0)</text>
</g>
<!-- cli_dash -->
<g id="node1" class="node">
<title>cli_dash</title>
<ellipse fill="#bbdefb" stroke="black" cx="94.67" cy="-270" rx="78.67" ry="27.93"/>
<text xml:space="preserve" text-anchor="middle" x="94.67" y="-277.2" font-family="Helvetica,sans-Serif" font-size="9.00">CLI Dashboard</text>
<text xml:space="preserve" text-anchor="middle" x="94.67" y="-266.7" font-family="Helvetica,sans-Serif" font-size="9.00">(rc_os_dashboard.cpp)</text>
<text xml:space="preserve" text-anchor="middle" x="94.67" y="-256.2" font-family="Helvetica,sans-Serif" font-size="9.00">or GCS MAVLink</text>
</g>
<!-- ao_telem_station -->
<g id="node3" class="node">
<title>ao_telem_station</title>
<path fill="#ffecb3" stroke="black" stroke-width="2" d="M473.83,-341.25C473.83,-341.25 403.83,-341.25 403.83,-341.25 397.83,-341.25 391.83,-335.25 391.83,-329.25 391.83,-329.25 391.83,-292.75 391.83,-292.75 391.83,-286.75 397.83,-280.75 403.83,-280.75 403.83,-280.75 473.83,-280.75 473.83,-280.75 479.83,-280.75 485.83,-286.75 485.83,-292.75 485.83,-292.75 485.83,-329.25 485.83,-329.25 485.83,-335.25 479.83,-341.25 473.83,-341.25"/>
<text xml:space="preserve" text-anchor="middle" x="438.83" y="-328.7" font-family="Helvetica,sans-Serif" font-size="9.00">AO_Telemetry</text>
<text xml:space="preserve" text-anchor="middle" x="438.83" y="-318.2" font-family="Helvetica,sans-Serif" font-size="9.00">(Station)</text>
<text xml:space="preserve" text-anchor="middle" x="438.83" y="-307.7" font-family="Helvetica,sans-Serif" font-size="9.00">Tracked Cmd State</text>
<text xml:space="preserve" text-anchor="middle" x="438.83" y="-297.2" font-family="Helvetica,sans-Serif" font-size="9.00">Retry Logic</text>
<text xml:space="preserve" text-anchor="middle" x="438.83" y="-286.7" font-family="Helvetica,sans-Serif" font-size="9.00">s_pending_cmd</text>
</g>
<!-- cli_dash&#45;&gt;ao_telem_station -->
<g id="edge1" class="edge">
<title>cli_dash&#45;&gt;ao_telem_station</title>
<path fill="none" stroke="#1565c0" stroke-width="1.5" d="M162.31,-255.32C183.87,-250.57 202.33,-246.5 202.33,-246.5 202.33,-246.5 338.08,-246.5 338.08,-246.5 338.08,-246.5 358.33,-259.59 380.58,-273.98"/>
<polygon fill="#1565c0" stroke="#1565c0" stroke-width="1.5" points="378.67,-276.92 388.97,-279.41 382.47,-271.04 378.67,-276.92"/>
<text xml:space="preserve" text-anchor="middle" x="270.21" y="-258.4" font-family="Helvetica,sans-Serif" font-size="8.00">send_tracked_command(cmd, p1..p5)</text>
<text xml:space="preserve" text-anchor="middle" x="270.21" y="-248.65" font-family="Helvetica,sans-Serif" font-size="8.00">file: ao_telemetry.cpp:94</text>
</g>
<!-- station_tick -->
<g id="node2" class="node">
<title>station_tick</title>
<path fill="none" stroke="black" d="M126.29,-390C126.29,-390 63.04,-390 63.04,-390 57.04,-390 51.04,-384 51.04,-378 51.04,-378 51.04,-366 51.04,-366 51.04,-360 57.04,-354 63.04,-354 63.04,-354 126.29,-354 126.29,-354 132.29,-354 138.29,-360 138.29,-366 138.29,-366 138.29,-378 138.29,-378 138.29,-384 132.29,-390 126.29,-390"/>
<text xml:space="preserve" text-anchor="middle" x="94.67" y="-373.95" font-family="Helvetica,sans-Serif" font-size="9.00">Station 10Hz Tick</text>
<text xml:space="preserve" text-anchor="middle" x="94.67" y="-363.45" font-family="Helvetica,sans-Serif" font-size="9.00">(cmd_retry_tick)</text>
</g>
<!-- station_tick&#45;&gt;ao_telem_station -->
<g id="edge3" class="edge">
<title>station_tick&#45;&gt;ao_telem_station</title>
<path fill="none" stroke="#1565c0" d="M138.65,-364.34C199.69,-353.45 311.63,-333.5 379.93,-321.32"/>
<polygon fill="#1565c0" stroke="#1565c0" points="380.19,-324.83 389.42,-319.63 378.96,-317.94 380.19,-324.83"/>
<text xml:space="preserve" text-anchor="middle" x="270.21" y="-364.17" font-family="Helvetica,sans-Serif" font-size="8.00">cmd_retry_tick(now_ms)</text>
<text xml:space="preserve" text-anchor="middle" x="270.21" y="-354.42" font-family="Helvetica,sans-Serif" font-size="8.00">file: ao_telemetry.cpp:1028</text>
</g>
<!-- ao_telem_station&#45;&gt;cli_dash -->
<g id="edge19" class="edge">
<title>ao_telem_station&#45;&gt;cli_dash</title>
<path fill="none" stroke="#1565c0" stroke-dasharray="5,2" d="M390.95,-305.38C336.96,-298.91 247.19,-288.16 180.77,-280.2"/>
<polygon fill="#1565c0" stroke="#1565c0" points="181.34,-276.74 170.99,-279.03 180.5,-283.69 181.34,-276.74"/>
<text xml:space="preserve" text-anchor="middle" x="270.21" y="-310.78" font-family="Helvetica,sans-Serif" font-size="8.00">dashboard update</text>
<text xml:space="preserve" text-anchor="middle" x="270.21" y="-301.03" font-family="Helvetica,sans-Serif" font-size="8.00">(retry stats + last result)</text>
</g>
<!-- ao_radio_station -->
<g id="node4" class="node">
<title>ao_radio_station</title>
<path fill="none" stroke="black" d="M792.21,-246.75C792.21,-246.75 725.96,-246.75 725.96,-246.75 719.96,-246.75 713.96,-240.75 713.96,-234.75 713.96,-234.75 713.96,-219.25 713.96,-219.25 713.96,-213.25 719.96,-207.25 725.96,-207.25 725.96,-207.25 792.21,-207.25 792.21,-207.25 798.21,-207.25 804.21,-213.25 804.21,-219.25 804.21,-219.25 804.21,-234.75 804.21,-234.75 804.21,-240.75 798.21,-246.75 792.21,-246.75"/>
<text xml:space="preserve" text-anchor="middle" x="759.08" y="-234.2" font-family="Helvetica,sans-Serif" font-size="9.00">AO_Radio</text>
<text xml:space="preserve" text-anchor="middle" x="759.08" y="-223.7" font-family="Helvetica,sans-Serif" font-size="9.00">+ RadioScheduler</text>
<text xml:space="preserve" text-anchor="middle" x="759.08" y="-213.2" font-family="Helvetica,sans-Serif" font-size="9.00">TX windows</text>
</g>
<!-- ao_telem_station&#45;&gt;ao_radio_station -->
<g id="edge5" class="edge">
<title>ao_telem_station&#45;&gt;ao_radio_station</title>
<path fill="none" stroke="#2e7d32" d="M486.79,-298.61C544.25,-283.44 641.41,-257.8 702.53,-241.66"/>
<polygon fill="#2e7d32" stroke="#2e7d32" points="703.26,-245.09 712.04,-239.15 701.47,-238.32 703.26,-245.09"/>
<text xml:space="preserve" text-anchor="middle" x="604.08" y="-305.48" font-family="Helvetica,sans-Serif" font-size="8.00">SIG_RADIO_TX</text>
<text xml:space="preserve" text-anchor="middle" x="604.08" y="-295.73" font-family="Helvetica,sans-Serif" font-size="8.00">(MAVLink frame)</text>
<text xml:space="preserve" text-anchor="middle" x="604.08" y="-285.98" font-family="Helvetica,sans-Serif" font-size="8.00">file: ao_telemetry.cpp:1017 (resend)</text>
</g>
<!-- retry_sm -->
<g id="node6" class="node">
<title>retry_sm</title>
<path fill="none" stroke="black" stroke-dasharray="5,2" d="M482.83,-463C482.83,-463 394.83,-463 394.83,-463 388.83,-463 382.83,-457 382.83,-451 382.83,-451 382.83,-425 382.83,-425 382.83,-419 388.83,-413 394.83,-413 394.83,-413 482.83,-413 482.83,-413 488.83,-413 494.83,-419 494.83,-425 494.83,-425 494.83,-451 494.83,-451 494.83,-457 488.83,-463 482.83,-463"/>
<text xml:space="preserve" text-anchor="middle" x="438.83" y="-450.45" font-family="Helvetica,sans-Serif" font-size="9.00">Retry State Machine</text>
<text xml:space="preserve" text-anchor="middle" x="438.83" y="-439.95" font-family="Helvetica,sans-Serif" font-size="9.00">kAckMaxRetries=8</text>
<text xml:space="preserve" text-anchor="middle" x="438.83" y="-429.45" font-family="Helvetica,sans-Serif" font-size="9.00">airtime&#45;scaled timeout</text>
<text xml:space="preserve" text-anchor="middle" x="438.83" y="-418.95" font-family="Helvetica,sans-Serif" font-size="9.00">resend_pending_cmd()</text>
</g>
<!-- ao_telem_station&#45;&gt;retry_sm -->
<g id="edge2" class="edge">
<title>ao_telem_station&#45;&gt;retry_sm</title>
<path fill="none" stroke="#f57c00" d="M438.83,-342.07C438.83,-359.98 438.83,-382.61 438.83,-401.38"/>
<polygon fill="#f57c00" stroke="#f57c00" points="435.33,-401.28 438.83,-411.28 442.33,-401.28 435.33,-401.28"/>
<text xml:space="preserve" text-anchor="middle" x="426.08" y="-379.27" font-family="Helvetica,sans-Serif" font-size="8.00">init s_pending_cmd</text>
<text xml:space="preserve" text-anchor="middle" x="426.08" y="-369.52" font-family="Helvetica,sans-Serif" font-size="8.00">set retries_left</text>
</g>
<!-- ao_rf_mgr -->
<g id="node5" class="node">
<title>ao_rf_mgr</title>
<path fill="none" stroke="black" d="M786.96,-368C786.96,-368 731.21,-368 731.21,-368 725.21,-368 719.21,-362 719.21,-356 719.21,-356 719.21,-330 719.21,-330 719.21,-324 725.21,-318 731.21,-318 731.21,-318 786.96,-318 786.96,-318 792.96,-318 798.96,-324 798.96,-330 798.96,-330 798.96,-356 798.96,-356 798.96,-362 792.96,-368 786.96,-368"/>
<text xml:space="preserve" text-anchor="middle" x="759.08" y="-355.45" font-family="Helvetica,sans-Serif" font-size="9.00">AO_RfManager</text>
<text xml:space="preserve" text-anchor="middle" x="759.08" y="-344.95" font-family="Helvetica,sans-Serif" font-size="9.00">ok_to_retry()</text>
<text xml:space="preserve" text-anchor="middle" x="759.08" y="-334.45" font-family="Helvetica,sans-Serif" font-size="9.00">anchor timing</text>
<text xml:space="preserve" text-anchor="middle" x="759.08" y="-323.95" font-family="Helvetica,sans-Serif" font-size="9.00">LinkState</text>
</g>
<!-- ao_radio_station&#45;&gt;ao_rf_mgr -->
<g id="edge6" class="edge">
<title>ao_radio_station&#45;&gt;ao_rf_mgr</title>
<path fill="none" stroke="#2e7d32" stroke-dasharray="5,2" d="M759.08,-247.21C759.08,-263.52 759.08,-286.89 759.08,-306.47"/>
<polygon fill="#2e7d32" stroke="#2e7d32" points="755.58,-306.25 759.08,-316.25 762.58,-306.25 755.58,-306.25"/>
<text xml:space="preserve" text-anchor="middle" x="746.33" y="-284.52" font-family="Helvetica,sans-Serif" font-size="8.00">next_tx_window_us()</text>
<text xml:space="preserve" text-anchor="middle" x="746.33" y="-274.77" font-family="Helvetica,sans-Serif" font-size="8.00">ok_to_retry()</text>
</g>
<!-- ack_rx_station -->
<g id="node7" class="node">
<title>ack_rx_station</title>
<path fill="none" stroke="black" d="M1110.58,-403.75C1110.58,-403.75 1022.58,-403.75 1022.58,-403.75 1016.58,-403.75 1010.58,-397.75 1010.58,-391.75 1010.58,-391.75 1010.58,-376.25 1010.58,-376.25 1010.58,-370.25 1016.58,-364.25 1022.58,-364.25 1022.58,-364.25 1110.58,-364.25 1110.58,-364.25 1116.58,-364.25 1122.58,-370.25 1122.58,-376.25 1122.58,-376.25 1122.58,-391.75 1122.58,-391.75 1122.58,-397.75 1116.58,-403.75 1110.58,-403.75"/>
<text xml:space="preserve" text-anchor="middle" x="1066.58" y="-391.2" font-family="Helvetica,sans-Serif" font-size="9.00">ACK RX Path</text>
<text xml:space="preserve" text-anchor="middle" x="1066.58" y="-380.7" font-family="Helvetica,sans-Serif" font-size="9.00">(CCSDS APID 0x003)</text>
<text xml:space="preserve" text-anchor="middle" x="1066.58" y="-370.2" font-family="Helvetica,sans-Serif" font-size="9.00">Match seq + latch result</text>
</g>
<!-- ao_radio_station&#45;&gt;ack_rx_station -->
<g id="edge17" class="edge">
<title>ao_radio_station&#45;&gt;ack_rx_station</title>
<path fill="none" stroke="#1565c0" d="M789.39,-246.97C815.49,-264.76 849.58,-288 849.58,-288 849.58,-288 945.67,-330.71 1009.67,-359.15"/>
<polygon fill="#1565c0" stroke="#1565c0" points="1008.09,-362.28 1018.65,-363.14 1010.94,-355.88 1008.09,-362.28"/>
<text xml:space="preserve" text-anchor="middle" x="910.33" y="-353.65" font-family="Helvetica,sans-Serif" font-size="8.00">SIG_RADIO_RX</text>
<text xml:space="preserve" text-anchor="middle" x="910.33" y="-343.9" font-family="Helvetica,sans-Serif" font-size="8.00">(CCSDS decode)</text>
</g>
<!-- mavlink_cmd -->
<g id="node8" class="node">
<title>mavlink_cmd</title>
<path fill="none" stroke="black" d="M1121.08,-164C1121.08,-164 1012.08,-164 1012.08,-164 1006.08,-164 1000.08,-158 1000.08,-152 1000.08,-152 1000.08,-140 1000.08,-140 1000.08,-134 1006.08,-128 1012.08,-128 1012.08,-128 1121.08,-128 1121.08,-128 1127.08,-128 1133.08,-134 1133.08,-140 1133.08,-140 1133.08,-152 1133.08,-152 1133.08,-158 1127.08,-164 1121.08,-164"/>
<text xml:space="preserve" text-anchor="middle" x="1066.58" y="-147.95" font-family="Helvetica,sans-Serif" font-size="9.00">MAVLink COMMAND_LONG</text>
<text xml:space="preserve" text-anchor="middle" x="1066.58" y="-137.45" font-family="Helvetica,sans-Serif" font-size="9.00">(confirmation = seq)</text>
</g>
<!-- ao_radio_station&#45;&gt;mavlink_cmd -->
<g id="edge7" class="edge">
<title>ao_radio_station&#45;&gt;mavlink_cmd</title>
<path fill="none" stroke="#e65100" stroke-width="2" d="M804.5,-215.22C852.3,-202.55 929.24,-182.15 987.25,-166.77"/>
<polygon fill="#e65100" stroke="#e65100" stroke-width="2" points="987.99,-170.19 996.76,-164.25 986.2,-163.43 987.99,-170.19"/>
<text xml:space="preserve" text-anchor="middle" x="910.33" y="-214.97" font-family="Helvetica,sans-Serif" font-size="8.00">LoRa TX</text>
<text xml:space="preserve" text-anchor="middle" x="910.33" y="-205.22" font-family="Helvetica,sans-Serif" font-size="8.00">(half&#45;duplex, collides with veh nav)</text>
</g>
<!-- retry_sm&#45;&gt;ao_telem_station -->
<g id="edge4" class="edge">
<title>retry_sm&#45;&gt;ao_telem_station</title>
<path fill="none" stroke="#e65100" stroke-dasharray="5,2" d="M417.54,-412.69C416.78,-411.78 416.33,-411.25 416.33,-411.25 416.33,-411.25 416.33,-373.26 416.56,-353.64"/>
<polygon fill="#e65100" stroke="#e65100" points="420.06,-353.82 416.84,-343.72 413.06,-353.62 420.06,-353.82"/>
<text xml:space="preserve" text-anchor="middle" x="395.71" y="-384.15" font-family="Helvetica,sans-Serif" font-size="8.00">on timeout:</text>
<text xml:space="preserve" text-anchor="middle" x="395.71" y="-374.4" font-family="Helvetica,sans-Serif" font-size="8.00">if retries_left &gt; 0</text>
<text xml:space="preserve" text-anchor="middle" x="395.71" y="-364.65" font-family="Helvetica,sans-Serif" font-size="8.00">→ resend</text>
</g>
<!-- retry_sm&#45;&gt;ao_telem_station -->
<g id="edge20" class="edge">
<title>retry_sm&#45;&gt;ao_telem_station</title>
<path fill="none" stroke="#b71c1c" stroke-width="1.5" stroke-dasharray="5,2" d="M466.32,-412.64C469.19,-409.99 471.08,-408.25 471.08,-408.25 471.08,-408.25 471.08,-373.23 469.52,-354.03"/>
<polygon fill="#b71c1c" stroke="#b71c1c" stroke-width="1.5" points="472.97,-353.45 467.78,-344.22 466.08,-354.68 472.97,-353.45"/>
<text xml:space="preserve" text-anchor="middle" x="456.46" y="-384.15" font-family="Helvetica,sans-Serif" font-size="8.00">retries exhausted</text>
<text xml:space="preserve" text-anchor="middle" x="456.46" y="-374.4" font-family="Helvetica,sans-Serif" font-size="8.00">record fail + stats</text>
<text xml:space="preserve" text-anchor="middle" x="456.46" y="-364.65" font-family="Helvetica,sans-Serif" font-size="8.00">latch failure result</text>
</g>
<!-- ack_rx_station&#45;&gt;ao_telem_station -->
<g id="edge18" class="edge">
<title>ack_rx_station&#45;&gt;ao_telem_station</title>
<path fill="none" stroke="#1565c0" stroke-width="1.5" d="M1028.23,-404.16C1001.82,-418.41 971.08,-435 971.08,-435 971.08,-435 539.58,-435 539.58,-435 539.58,-435 510.58,-395 510.58,-395 510.58,-395 491.74,-372.62 473.5,-350.97"/>
<polygon fill="#1565c0" stroke="#1565c0" stroke-width="1.5" points="476.36,-348.93 467.24,-343.54 471,-353.44 476.36,-348.93"/>
<text xml:space="preserve" text-anchor="middle" x="759.08" y="-456.65" font-family="Helvetica,sans-Serif" font-size="8.00">match seq against s_pending_cmd</text>
<text xml:space="preserve" text-anchor="middle" x="759.08" y="-446.9" font-family="Helvetica,sans-Serif" font-size="8.00">latch s_last_cmd_result</text>
<text xml:space="preserve" text-anchor="middle" x="759.08" y="-437.15" font-family="Helvetica,sans-Serif" font-size="8.00">clear pending</text>
</g>
<!-- ao_radio_vehicle -->
<g id="node10" class="node">
<title>ao_radio_vehicle</title>
<path fill="none" stroke="black" d="M1288.08,-165.75C1288.08,-165.75 1236.08,-165.75 1236.08,-165.75 1230.08,-165.75 1224.08,-159.75 1224.08,-153.75 1224.08,-153.75 1224.08,-138.25 1224.08,-138.25 1224.08,-132.25 1230.08,-126.25 1236.08,-126.25 1236.08,-126.25 1288.08,-126.25 1288.08,-126.25 1294.08,-126.25 1300.08,-132.25 1300.08,-138.25 1300.08,-138.25 1300.08,-153.75 1300.08,-153.75 1300.08,-159.75 1294.08,-165.75 1288.08,-165.75"/>
<text xml:space="preserve" text-anchor="middle" x="1262.08" y="-153.2" font-family="Helvetica,sans-Serif" font-size="9.00">AO_Radio</text>
<text xml:space="preserve" text-anchor="middle" x="1262.08" y="-142.7" font-family="Helvetica,sans-Serif" font-size="9.00">RX + CRC/seq</text>
<text xml:space="preserve" text-anchor="middle" x="1262.08" y="-132.2" font-family="Helvetica,sans-Serif" font-size="9.00">validation</text>
</g>
<!-- mavlink_cmd&#45;&gt;ao_radio_vehicle -->
<g id="edge8" class="edge">
<title>mavlink_cmd&#45;&gt;ao_radio_vehicle</title>
<path fill="none" stroke="#e65100" stroke-width="2" d="M1133.36,-146C1158.67,-146 1187.13,-146 1210.75,-146"/>
<polygon fill="#e65100" stroke="#e65100" stroke-width="2" points="1210.66,-149.5 1220.66,-146 1210.66,-142.5 1210.66,-149.5"/>
<text xml:space="preserve" text-anchor="middle" x="1178.58" y="-148.15" font-family="Helvetica,sans-Serif" font-size="8.00">LoRa RX</text>
</g>
<!-- ccsds_ack -->
<g id="node9" class="node">
<title>ccsds_ack</title>
<path fill="none" stroke="black" stroke-width="2" d="M498.58,-163.75C498.58,-163.75 379.08,-163.75 379.08,-163.75 373.08,-163.75 367.08,-157.75 367.08,-151.75 367.08,-151.75 367.08,-136.25 367.08,-136.25 367.08,-130.25 373.08,-124.25 379.08,-124.25 379.08,-124.25 498.58,-124.25 498.58,-124.25 504.58,-124.25 510.58,-130.25 510.58,-136.25 510.58,-136.25 510.58,-151.75 510.58,-151.75 510.58,-157.75 504.58,-163.75 498.58,-163.75"/>
<text xml:space="preserve" text-anchor="middle" x="438.83" y="-151.2" font-family="Helvetica,sans-Serif" font-size="9.00">CCSDS ACK Packet</text>
<text xml:space="preserve" text-anchor="middle" x="438.83" y="-140.7" font-family="Helvetica,sans-Serif" font-size="9.00">APID 0x003 | 22 bytes</text>
<text xml:space="preserve" text-anchor="middle" x="438.83" y="-130.2" font-family="Helvetica,sans-Serif" font-size="9.00">(CommandAckPayload + CRC)</text>
</g>
<!-- ccsds_ack&#45;&gt;ao_radio_station -->
<g id="edge9" class="edge">
<title>ccsds_ack&#45;&gt;ao_radio_station</title>
<path fill="none" stroke="#1565c0" stroke-width="2" d="M511.25,-162.63C568.65,-177.6 648.18,-198.34 701.29,-212.19"/>
<polygon fill="#1565c0" stroke="#1565c0" stroke-width="2" points="700.37,-215.57 710.93,-214.7 702.14,-208.79 700.37,-215.57"/>
<text xml:space="preserve" text-anchor="middle" x="604.08" y="-204.62" font-family="Helvetica,sans-Serif" font-size="8.00">LoRa RX (ACK)</text>
</g>
<!-- ao_telem_vehicle -->
<g id="node11" class="node">
<title>ao_telem_vehicle</title>
<path fill="#ffcdd2" stroke="black" stroke-width="2" d="M1533.08,-117C1533.08,-117 1466.08,-117 1466.08,-117 1460.08,-117 1454.08,-111 1454.08,-105 1454.08,-105 1454.08,-79 1454.08,-79 1454.08,-73 1460.08,-67 1466.08,-67 1466.08,-67 1533.08,-67 1533.08,-67 1539.08,-67 1545.08,-73 1545.08,-79 1545.08,-79 1545.08,-105 1545.08,-105 1545.08,-111 1539.08,-117 1533.08,-117"/>
<text xml:space="preserve" text-anchor="middle" x="1499.58" y="-104.45" font-family="Helvetica,sans-Serif" font-size="9.00">AO_Telemetry</text>
<text xml:space="preserve" text-anchor="middle" x="1499.58" y="-93.95" font-family="Helvetica,sans-Serif" font-size="9.00">(Vehicle)</text>
<text xml:space="preserve" text-anchor="middle" x="1499.58" y="-83.45" font-family="Helvetica,sans-Serif" font-size="9.00">decode + dispatch</text>
<text xml:space="preserve" text-anchor="middle" x="1499.58" y="-72.95" font-family="Helvetica,sans-Serif" font-size="9.00">stage_cmd_ack()</text>
</g>
<!-- ao_radio_vehicle&#45;&gt;ao_telem_vehicle -->
<g id="edge10" class="edge">
<title>ao_radio_vehicle&#45;&gt;ao_telem_vehicle</title>
<path fill="none" stroke="#c62828" d="M1300.4,-137.44C1338.58,-128.69 1398.37,-114.98 1442.3,-104.91"/>
<polygon fill="#c62828" stroke="#c62828" points="1442.94,-108.35 1451.91,-102.7 1441.38,-101.53 1442.94,-108.35"/>
<text xml:space="preserve" text-anchor="middle" x="1377.08" y="-141.94" font-family="Helvetica,sans-Serif" font-size="8.00">SIG_RADIO_RX</text>
<text xml:space="preserve" text-anchor="middle" x="1377.08" y="-132.19" font-family="Helvetica,sans-Serif" font-size="8.00">file: ao_telemetry.cpp ~336</text>
</g>
<!-- dispatch -->
<g id="node12" class="node">
<title>dispatch</title>
<path fill="none" stroke="black" d="M1820.46,-55.75C1820.46,-55.75 1724.96,-55.75 1724.96,-55.75 1718.96,-55.75 1712.96,-49.75 1712.96,-43.75 1712.96,-43.75 1712.96,-28.25 1712.96,-28.25 1712.96,-22.25 1718.96,-16.25 1724.96,-16.25 1724.96,-16.25 1820.46,-16.25 1820.46,-16.25 1826.46,-16.25 1832.46,-22.25 1832.46,-28.25 1832.46,-28.25 1832.46,-43.75 1832.46,-43.75 1832.46,-49.75 1826.46,-55.75 1820.46,-55.75"/>
<text xml:space="preserve" text-anchor="middle" x="1772.71" y="-43.2" font-family="Helvetica,sans-Serif" font-size="9.00">dispatch_command()</text>
<text xml:space="preserve" text-anchor="middle" x="1772.71" y="-32.7" font-family="Helvetica,sans-Serif" font-size="9.00">(MAV_CMD switch)</text>
<text xml:space="preserve" text-anchor="middle" x="1772.71" y="-22.2" font-family="Helvetica,sans-Serif" font-size="9.00">→ FD signals or handlers</text>
</g>
<!-- ao_telem_vehicle&#45;&gt;dispatch -->
<g id="edge11" class="edge">
<title>ao_telem_vehicle&#45;&gt;dispatch</title>
<path fill="none" stroke="#c62828" d="M1545.96,-82.63C1588.48,-73.85 1652.65,-60.59 1701.72,-50.45"/>
<polygon fill="#c62828" stroke="#c62828" points="1702.33,-53.9 1711.41,-48.45 1700.91,-47.05 1702.33,-53.9"/>
<text xml:space="preserve" text-anchor="middle" x="1622.46" y="-87.35" font-family="Helvetica,sans-Serif" font-size="8.00">handle_rx_mavlink_msg</text>
<text xml:space="preserve" text-anchor="middle" x="1622.46" y="-77.6" font-family="Helvetica,sans-Serif" font-size="8.00">COMMAND_LONG</text>
</g>
<!-- ao_fd -->
<g id="node13" class="node">
<title>ao_fd</title>
<path fill="none" stroke="black" d="M1833.58,-166.75C1833.58,-166.75 1711.83,-166.75 1711.83,-166.75 1705.83,-166.75 1699.83,-160.75 1699.83,-154.75 1699.83,-154.75 1699.83,-139.25 1699.83,-139.25 1699.83,-133.25 1705.83,-127.25 1711.83,-127.25 1711.83,-127.25 1833.58,-127.25 1833.58,-127.25 1839.58,-127.25 1845.58,-133.25 1845.58,-139.25 1845.58,-139.25 1845.58,-154.75 1845.58,-154.75 1845.58,-160.75 1839.58,-166.75 1833.58,-166.75"/>
<text xml:space="preserve" text-anchor="middle" x="1772.71" y="-154.2" font-family="Helvetica,sans-Serif" font-size="9.00">AO_FlightDirector</text>
<text xml:space="preserve" text-anchor="middle" x="1772.71" y="-143.7" font-family="Helvetica,sans-Serif" font-size="9.00">Executes ARM/DISARM/ABORT</text>
<text xml:space="preserve" text-anchor="middle" x="1772.71" y="-133.2" font-family="Helvetica,sans-Serif" font-size="9.00">Returns ack_result</text>
</g>
<!-- dispatch&#45;&gt;ao_fd -->
<g id="edge12" class="edge">
<title>dispatch&#45;&gt;ao_fd</title>
<path fill="none" stroke="#c62828" stroke-width="1.5" d="M1772.71,-56.1C1772.71,-72.52 1772.71,-96.05 1772.71,-115.05"/>
<polygon fill="#c62828" stroke="#c62828" stroke-width="1.5" points="1769.21,-114.78 1772.71,-124.78 1776.21,-114.78 1769.21,-114.78"/>
<text xml:space="preserve" text-anchor="middle" x="1759.96" y="-93.65" font-family="Helvetica,sans-Serif" font-size="8.00">SIG_ARM / SIG_DISARM / SIG_ABORT</text>
<text xml:space="preserve" text-anchor="middle" x="1759.96" y="-83.9" font-family="Helvetica,sans-Serif" font-size="8.00">or direct config apply</text>
</g>
<!-- ack_gen -->
<g id="node14" class="node">
<title>ack_gen</title>
<path fill="none" stroke="black" stroke-dasharray="5,2" d="M2122.83,-82C2122.83,-82 2016.08,-82 2016.08,-82 2010.08,-82 2004.08,-76 2004.08,-70 2004.08,-70 2004.08,-44 2004.08,-44 2004.08,-38 2010.08,-32 2016.08,-32 2016.08,-32 2122.83,-32 2122.83,-32 2128.83,-32 2134.83,-38 2134.83,-44 2134.83,-44 2134.83,-70 2134.83,-70 2134.83,-76 2128.83,-82 2122.83,-82"/>
<text xml:space="preserve" text-anchor="middle" x="2069.46" y="-69.45" font-family="Helvetica,sans-Serif" font-size="9.00">stage_cmd_ack()</text>
<text xml:space="preserve" text-anchor="middle" x="2069.46" y="-58.95" font-family="Helvetica,sans-Serif" font-size="9.00">s_pending_ack</text>
<text xml:space="preserve" text-anchor="middle" x="2069.46" y="-48.45" font-family="Helvetica,sans-Serif" font-size="9.00">+ config echo for QUERY</text>
<text xml:space="preserve" text-anchor="middle" x="2069.46" y="-37.95" font-family="Helvetica,sans-Serif" font-size="9.00">send_pending_ack_if_any()</text>
</g>
<!-- dispatch&#45;&gt;ack_gen -->
<g id="edge14" class="edge">
<title>dispatch&#45;&gt;ack_gen</title>
<path fill="none" stroke="#c62828" d="M1832.64,-40.2C1878.55,-43.47 1942.61,-48.03 1992.38,-51.58"/>
<polygon fill="#c62828" stroke="#c62828" points="1992,-55.06 2002.22,-52.28 1992.5,-48.08 1992,-55.06"/>
<text xml:space="preserve" text-anchor="middle" x="1924.83" y="-62.11" font-family="Helvetica,sans-Serif" font-size="8.00">stage_cmd_ack(cmd, result)</text>
<text xml:space="preserve" text-anchor="middle" x="1924.83" y="-52.36" font-family="Helvetica,sans-Serif" font-size="8.00">file: ao_telemetry.cpp:311</text>
</g>
<!-- ao_fd&#45;&gt;dispatch -->
<g id="edge13" class="edge">
<title>ao_fd&#45;&gt;dispatch</title>
<path fill="none" stroke="#c62828" d="M1772.71,-127.05C1772.71,-110.51 1772.71,-86.7 1772.71,-67.58"/>
<polygon fill="#c62828" stroke="#c62828" points="1776.21,-67.61 1772.71,-57.61 1769.21,-67.61 1776.21,-67.61"/>
<text xml:space="preserve" text-anchor="middle" x="1780.58" y="-88.78" font-family="Helvetica,sans-Serif" font-size="8.00">ack_result (kAccepted / kDenied)</text>
</g>
<!-- ccsds_encode -->
<g id="node15" class="node">
<title>ccsds_encode</title>
<path fill="none" stroke="black" d="M2119.08,-195C2119.08,-195 2019.83,-195 2019.83,-195 2013.83,-195 2007.83,-189 2007.83,-183 2007.83,-183 2007.83,-171 2007.83,-171 2007.83,-165 2013.83,-159 2019.83,-159 2019.83,-159 2119.08,-159 2119.08,-159 2125.08,-159 2131.08,-165 2131.08,-171 2131.08,-171 2131.08,-183 2131.08,-183 2131.08,-189 2125.08,-195 2119.08,-195"/>
<text xml:space="preserve" text-anchor="middle" x="2069.46" y="-178.95" font-family="Helvetica,sans-Serif" font-size="9.00">ccsds_encode_cmd_ack()</text>
<text xml:space="preserve" text-anchor="middle" x="2069.46" y="-168.45" font-family="Helvetica,sans-Serif" font-size="9.00">(APID 0x003)</text>
</g>
<!-- ack_gen&#45;&gt;ccsds_encode -->
<g id="edge15" class="edge">
<title>ack_gen&#45;&gt;ccsds_encode</title>
<path fill="none" stroke="#c62828" d="M2069.46,-82.45C2069.46,-101.36 2069.46,-127.23 2069.46,-147.13"/>
<polygon fill="#c62828" stroke="#c62828" points="2065.96,-147.11 2069.46,-157.11 2072.96,-147.11 2065.96,-147.11"/>
<text xml:space="preserve" text-anchor="middle" x="2056.71" y="-122.65" font-family="Helvetica,sans-Serif" font-size="8.00">populate CommandAckPayload</text>
<text xml:space="preserve" text-anchor="middle" x="2056.71" y="-112.9" font-family="Helvetica,sans-Serif" font-size="8.00">+ config echo (QUERY)</text>
</g>
<!-- ccsds_encode&#45;&gt;ao_radio_vehicle -->
<g id="edge16" class="edge">
<title>ccsds_encode&#45;&gt;ao_radio_vehicle</title>
<path fill="none" stroke="#c62828" d="M2007.55,-179.19C1941.57,-181.55 1845.58,-185 1845.58,-185 1845.58,-185 1699.83,-185 1699.83,-185 1699.83,-185 1329.08,-159 1329.08,-159 1329.08,-159 1321.49,-157.5 1311.45,-155.53"/>
<polygon fill="#c62828" stroke="#c62828" points="1312.3,-152.13 1301.81,-153.63 1310.94,-158.99 1312.3,-152.13"/>
<text xml:space="preserve" text-anchor="middle" x="1622.46" y="-194.75" font-family="Helvetica,sans-Serif" font-size="8.00">SIG_RADIO_TX</text>
<text xml:space="preserve" text-anchor="middle" x="1622.46" y="-185" font-family="Helvetica,sans-Serif" font-size="8.00">(CCSDS APID 0x003 ACK)</text>
</g>
<!-- legend -->
<g id="node16" class="node">
<title>legend</title>
<polygon fill="#fafafa" stroke="black" points="152.92,-583.12 30.42,-583.12 30.42,-506.88 158.92,-506.88 158.92,-577.12 152.92,-583.12"/>
<polyline fill="none" stroke="black" points="152.92,-583.12 152.92,-577.12"/>
<polyline fill="none" stroke="black" points="158.92,-577.12 152.92,-577.12"/>
<text xml:space="preserve" text-anchor="middle" x="94.67" y="-571.52" font-family="Helvetica,sans-Serif" font-size="8.00">Legend:</text>
<text xml:space="preserve" text-anchor="middle" x="94.67" y="-561.77" font-family="Helvetica,sans-Serif" font-size="8.00">Solid = primary flow</text>
<text xml:space="preserve" text-anchor="middle" x="94.67" y="-552.02" font-family="Helvetica,sans-Serif" font-size="8.00">Dashed = retry / state / decision</text>
<text xml:space="preserve" text-anchor="middle" x="94.67" y="-542.27" font-family="Helvetica,sans-Serif" font-size="8.00">Yellow = core STOP&#45;GAP logic</text>
<text xml:space="preserve" text-anchor="middle" x="94.67" y="-532.52" font-family="Helvetica,sans-Serif" font-size="8.00">Red = Vehicle dispatch</text>
<text xml:space="preserve" text-anchor="middle" x="94.67" y="-522.77" font-family="Helvetica,sans-Serif" font-size="8.00">Blue = Station retry/ACK</text>
<text xml:space="preserve" text-anchor="middle" x="94.67" y="-513.02" font-family="Helvetica,sans-Serif" font-size="8.00">Green = Radio scheduling</text>
</g>
</g>
</svg>
